<svg xmlns="http://www.w3.org/2000/svg" width="374.371" height="27.216" viewBox="0 0 374.371 27.216">
  <g id="logo-cocktail-numerique" transform="translate(435 -37.745)">
    <g id="cocktail" transform="translate(-488.629 37.745)">
      <path id="Tracé_157" data-name="Tracé 157" d="M742.862,14.222a7.873,7.873,0,1,1-15.746,0V.069h-5.138V14.222a13.009,13.009,0,1,0,26.018,0V.069h-5.139V14.222Z" transform="translate(-484.278 -0.046)" fill="#fff"/>
      <path id="Tracé_158" data-name="Tracé 158" d="M1174.711,14.226a7.873,7.873,0,1,1-15.746,0V.082h-5.137V14.226a13.009,13.009,0,0,0,26.018,0V.082h-5.139V14.226Z" transform="translate(-773.947 -0.055)" fill="#fff"/>
      <rect id="Rectangle_78" data-name="Rectangle 78" width="5.139" height="27.159" transform="translate(342.373 0.028)" fill="#fff"/>
      <path id="Tracé_159" data-name="Tracé 159" d="M978.067,8.875a8.814,8.814,0,0,0-8.8-8.8h-8.306v0H958.39v27.16h5.139V17.684h3.741l8.48,9.551,6.88.01-9.352-10.535a8.838,8.838,0,0,0,4.788-7.835m-8.8,3.665h-5.733V5.21h5.733a3.665,3.665,0,1,1,0,7.331" transform="translate(-642.854 -0.048)" fill="#fff"/>
      <path id="Tracé_160" data-name="Tracé 160" d="M1260.251,5.215V.076H1245.89v0h-5.139V27.235h19.5V22.1H1245.89V16.225h9.161V11.086h-9.161V5.215Z" transform="translate(-832.251 -0.048)" fill="#fff"/>
      <path id="Tracé_161" data-name="Tracé 161" d="M821.28,7.4,814.72.084h-5.805v27.15h5.139V7.071l7.287,8.069,6.989-7.953V27.234h5.139V.073l-5.71,0Z" transform="translate(-542.591 -0.046)" fill="#fff"/>
      <path id="Tracé_162" data-name="Tracé 162" d="M1076.971,22.089a8.493,8.493,0,1,1,8.182-6.384h.1l.655.751,3.072,3.509a13.662,13.662,0,1,0-7.136,6.341l-3.765-4.3a8.4,8.4,0,0,1-1.112.081" transform="translate(-713.277 -0.037)" fill="#fff"/>
      <path id="Tracé_163" data-name="Tracé 163" d="M1119.015,54.289H1119a8.487,8.487,0,0,1-3.816,3.433l3.47,3.965,1.678,1.91h6.831l-4.667-5.329Z" transform="translate(-748.028 -36.415)" fill="#fff"/>
      <path id="Tracé_164" data-name="Tracé 164" d="M896.561,16.182h9.133v-5.2h-9.133V5.2h2.828l4.63-5.2h-7.458V0h-5.167V27.168h5.167v0h14.333v-5.2H896.561Z" transform="translate(-597.915 0)" fill="#fff"/>
      <path id="Tracé_165" data-name="Tracé 165" d="M924.632,5.215h8.556V.014h-3.926Z" transform="translate(-620.21 -0.01)" fill="#fff"/>
      <path id="Tracé_166" data-name="Tracé 166" d="M666.154,14.519,655.53.01h-5.174V19.835H655.5V8.664L669.049,27.17h2.244V.01h-5.139Z" transform="translate(-436.236 -0.007)" fill="#fff"/>
      <path id="Tracé_167" data-name="Tracé 167" d="M225.766.1a13.581,13.581,0,1,0,13.582,13.581A13.6,13.6,0,0,0,225.766.1m0,22.019a8.443,8.443,0,1,1,8.443-8.443,8.455,8.455,0,0,1-8.443,8.443" transform="translate(-142.326 -0.068)" fill="#00a587"/>
      <path id="Tracé_168" data-name="Tracé 168" d="M162.89,13.68a13.6,13.6,0,0,0,13.582,13.582V22.124a8.443,8.443,0,0,1,0-16.886V.1A13.6,13.6,0,0,0,162.89,13.68" transform="translate(-109.261 -0.066)" fill="#00a587"/>
      <path id="Tracé_169" data-name="Tracé 169" d="M302.589,13.68a13.6,13.6,0,0,0,13.582,13.582V22.124a8.443,8.443,0,0,1,0-16.886V.1A13.594,13.594,0,0,0,302.589,13.68" transform="translate(-202.966 -0.066)" fill="#00a587"/>
      <path id="Tracé_170" data-name="Tracé 170" d="M378.478.1,371.6.122l-6.841,7.744V.122h-5.139v27.16h5.139V19.5l6.879,7.783H378.5l-12.018-13.6Z" transform="translate(-241.223 -0.066)" fill="#00a587"/>
      <path id="Tracé_171" data-name="Tracé 171" d="M445.62.1H424.859V5.237h7.812V27.258h5.139V5.237h7.81Z" transform="translate(-284.98 -0.066)" fill="#00a587"/>
      <path id="Tracé_172" data-name="Tracé 172" d="M493.683.172l-13.55,27.141h5.742l2.919-5.848h12.969l2.919,5.848h5.744L496.876.172Zm-2.316,16.149,3.922-7.853,3.922,7.853Z" transform="translate(-322.056 -0.115)" fill="#00a587"/>
      <rect id="Rectangle_79" data-name="Rectangle 79" width="5.139" height="27.141" transform="translate(190.979 0.056)" fill="#00a587"/>
      <path id="Tracé_173" data-name="Tracé 173" d="M624.16,22.1h-7.721V.1H611.3V27.234h18V22.1Z" transform="translate(-410.038 -0.065)" fill="#00a587"/>
    </g>
  </g>
</svg>
